# xmcd
#
# Track frame offsets: 
#        150
#        12766
#        27669
#        41605
#        57272
#        70601
#        84033
#        102101
#        116989
#        130580
#        144023
#        161579
#        178854
#        189284
#        201981
#
# Disc length: 2991 seconds
#
# Revision: 0
# Processed by: cddbd v1.5.1PL2 Copyright (c) Steve Scherf et al.
# Submitted via: ExactAudioCopy v0.95a5
#
DISCID=c00bad0f
DTITLE=Pee Bee and the Night Train - Jumpin' the Tracks
DYEAR=1997
DGENRE=Blues
TTITLE0=Ella Mae
TTITLE1=Teardrops
TTITLE2=The Boogie Woogie Choo Choo Train
TTITLE3=Some Kind of Lady
TTITLE4=Guilty
TTITLE5=Let the Good Times Roll
TTITLE6=The One Night Stand
TTITLE7=Baby It's You
TTITLE8=Fat Sam From Birmingham
TTITLE9=Them That Got
TTITLE10=Ride Your Pony
TTITLE11=No Guts, No Glory
TTITLE12=Seventeen
TTITLE13=Hey Baby
TTITLE14=Knock On Wood
EXTD=
EXTT0=
EXTT1=
EXTT2=
EXTT3=
EXTT4=
EXTT5=
EXTT6=
EXTT7=
EXTT8=
EXTT9=
EXTT10=
EXTT11=
EXTT12=
EXTT13=
EXTT14=
PLAYORDER=
